<svg viewBox="0 0 163 157" fill="none" xmlns="http://www.w3.org/2000/svg">
    <path
        d="M107.589 67.8707L117.537 62.2936L148.368 32.5874L129.41 14.4181L98.5098 44.5302L92.2137 53.5394L95.0777 42.0604V0.643356H67.9919V42.0604L70.8675 53.5394L62.6583 42.0604L33.984 14.4181L15.1075 32.5874L45.8572 62.2936L55.4114 67.8707L45.8572 65.9576H0.845703V91.2113H44.1759L55.4114 88.9039L45.8572 94.713L15.1075 124.431L33.984 142.67L64.8845 112.882L70.8675 103.803L67.9919 112.882V156.526H95.0777V112.882L92.2137 103.803L98.5098 112.882L129.41 142.67L148.287 124.431L117.537 94.713L107.589 88.9039L117.537 91.2113H162.154V65.9576H117.537L107.589 67.8707Z"
        fill="currentColor" />
</svg>